<svg xmlns="http://www.w3.org/2000/svg" width="1000" height="1000" style="width:100%;height:100%;transform:translate3d(0,0,0);content-visibility:visible"><defs><clipPath id="b"><path d="M0 0h1000v1000H0z"/></clipPath><symbol id="a"><path fill="#176396" d="M49.679 0c0 27.437-22.242 49.679-49.679 49.679-27.436 0-49.679-22.242-49.679-49.679S-27.436-49.679 0-49.679c27.437 0 49.679 22.242 49.679 49.679z" style="display:block" transform="matrix(5.5 0 0 5.5 500 500)"/></symbol><mask id="c" mask-type="alpha"><use href="#a"/></mask></defs><g clip-path="url(#b)" transform="translate(-410.53 -410.53)scale(1.82)"><use href="#a"/><g opacity=".5" style="display:block"><path fill="none" stroke="#FFF" stroke-dasharray="150" stroke-dashoffset="-1113.044" stroke-linecap="round" stroke-linejoin="round" stroke-width="6" d="M380.5 415.25 380.25 524" opacity="1"/></g><g opacity=".5" style="display:block"><path fill="none" stroke="#FFF" stroke-dasharray="150" stroke-dashoffset="-1138.589" stroke-linecap="round" stroke-linejoin="round" stroke-width="6" d="m446.5 655.25-.25 48.75" opacity="1"/></g><g opacity=".5" style="display:block"><path fill="none" stroke="#FFF" stroke-dasharray="150" stroke-dashoffset="-1224.108" stroke-linecap="round" stroke-linejoin="round" stroke-width="6" d="M594.5 518.25 594.25 627" opacity="1"/></g><g opacity=".5" style="display:block"><path fill="none" stroke="#FFF" stroke-dasharray="150" stroke-dashoffset="-1285.432" stroke-linecap="round" stroke-linejoin="round" stroke-width="6" d="M573.5 272.25 573.25 381" opacity="1"/></g><g mask="url(#c)" style="display:block"><path fill="#F6CF34" d="M523.166 564.598h-37.394s-48.328 26.669 18.781 117.443c68.111-90.774 18.613-117.443 18.613-117.443z"/></g><g mask="url(#c)" opacity=".99" style="display:block"><path fill="#FEF3CD" d="M515.532 564.598H493.52s-25.563 21.69 11.184 72.3c36.393-50.61 10.83-72.3 10.83-72.3z" opacity="1"/></g><path fill="#FB5A3A" d="M-50.25-5.5s-24.25 36-24.25 47.25 15 68.125 15 68.125L-32.25 58h65l27.625 51.875S74.5 53.25 74.5 41.75 51-5.375 51-5.375L-50.25-5.5z" style="display:block" transform="translate(504.536 485.348)"/><path fill="#293C4D" d="M-34 61s4.081 11.756 5.603 13.628C-26.875 76.5-14.875 80.75 0 80.75c14.875 0 27.09-4.404 28.795-6.077C30.5 73 34.625 61 34.625 61H-34z" style="display:block" transform="translate(504.536 485.348)"/><path fill="#FFF" d="M.062-176.5C-68.5-137-62.5-5.5-34 60.875c2.125 5.375 23.164 8.753 34.051 8.814C10.938 69.75 32.125 66.25 34 60.875 62.25-5.5 68.5-137 .062-176.5z" style="display:block" transform="translate(504.536 485.348)"/><path fill="#FB5A3A" d="M.062-176.5c-17.11 9.857-29.576 25.445-38.208 44.319 24.146 14.306 52.208 14.306 76.529.484C29.781-150.789 17.287-166.558.062-176.5zM.063-5.375c14 15.25 8.25 95.375.062 115.25C-8.375 90-14 10 .063-5.375z" style="display:block" transform="translate(504.536 485.348)"/><path fill="#F57234" d="M0-30c16.557 0 30 13.443 30 30 0 16.557-13.443 30-30 30-16.557 0-30-13.443-30-30 0-16.557 13.443-30 30-30z" style="display:block" transform="translate(504.545 409.607)"/><path fill="#293C4D" d="M0-25c13.797 0 25 11.203 25 25S13.797 25 0 25-25 13.797-25 0s11.203-25 25-25z" style="display:block" transform="translate(504.545 409.607)"/></g></svg>